<mxfile host="app.diagrams.net" modified="2024-05-18T11:21:28.575Z" agent="Mozilla/5.0 (Windows NT 10.0; Win64; x64) AppleWebKit/537.36 (KHTML, like Gecko) Chrome/123.0.0.0 Safari/537.36" etag="bVcSoHPygcxQQA6hIzG8" version="24.4.4" type="device">
  <diagram id="yPxyJZ8AM_hMuL3Unpa9" name="gitflow">
    <mxGraphModel dx="3070" dy="2480" grid="1" gridSize="10" guides="1" tooltips="1" connect="1" arrows="1" fold="1" page="1" pageScale="1" pageWidth="850" pageHeight="1100" math="0" shadow="0">
      <root>
        <mxCell id="0" />
        <mxCell id="1" parent="0" />
        <mxCell id="52" value="Z0" style="ellipse;whiteSpace=wrap;html=1;aspect=fixed;fontSize=10;fillColor=#e1d5e7;strokeColor=#9673a6;" parent="1" vertex="1">
          <mxGeometry x="-310" y="140" width="40" height="40" as="geometry" />
        </mxCell>
        <mxCell id="51" value="Z1" style="ellipse;whiteSpace=wrap;html=1;aspect=fixed;fontSize=10;fillColor=#e1d5e7;strokeColor=#9673a6;" parent="1" vertex="1">
          <mxGeometry x="-47.5" y="140" width="40" height="40" as="geometry" />
        </mxCell>
        <mxCell id="X5qCzSRsX2g8T83lWoOT-180" value="Z2" style="ellipse;whiteSpace=wrap;html=1;aspect=fixed;fontSize=10;fillColor=#e1d5e7;strokeColor=#9673a6;" parent="1" vertex="1">
          <mxGeometry x="230" y="140" width="40" height="40" as="geometry" />
        </mxCell>
        <mxCell id="X5qCzSRsX2g8T83lWoOT-181" value="Z3" style="ellipse;whiteSpace=wrap;html=1;aspect=fixed;fontSize=10;fillColor=#e1d5e7;strokeColor=#9673a6;" parent="1" vertex="1">
          <mxGeometry x="540" y="140" width="40" height="40" as="geometry" />
        </mxCell>
        <mxCell id="X5qCzSRsX2g8T83lWoOT-183" value="Pattern = &quot;ANANAS&quot;" style="text;html=1;align=center;verticalAlign=middle;whiteSpace=wrap;rounded=0;" parent="1" vertex="1">
          <mxGeometry x="-115" y="-160" width="130" height="30" as="geometry" />
        </mxCell>
        <mxCell id="X5qCzSRsX2g8T83lWoOT-184" value="Alphabet A = &quot;A, N, S, ...&quot;" style="text;html=1;align=center;verticalAlign=middle;whiteSpace=wrap;rounded=0;" parent="1" vertex="1">
          <mxGeometry x="25" y="-160" width="150" height="30" as="geometry" />
        </mxCell>
        <mxCell id="X5qCzSRsX2g8T83lWoOT-185" value="Z4" style="ellipse;whiteSpace=wrap;html=1;aspect=fixed;fontSize=10;fillColor=#e1d5e7;strokeColor=#9673a6;" parent="1" vertex="1">
          <mxGeometry x="850" y="140" width="40" height="40" as="geometry" />
        </mxCell>
        <mxCell id="X5qCzSRsX2g8T83lWoOT-186" value="Z5" style="ellipse;whiteSpace=wrap;html=1;aspect=fixed;fontSize=10;fillColor=#e1d5e7;strokeColor=#9673a6;" parent="1" vertex="1">
          <mxGeometry x="1160" y="140" width="40" height="40" as="geometry" />
        </mxCell>
        <mxCell id="X5qCzSRsX2g8T83lWoOT-187" value="Z6" style="ellipse;whiteSpace=wrap;html=1;aspect=fixed;fontSize=10;fillColor=#e1d5e7;strokeColor=#9673a6;" parent="1" vertex="1">
          <mxGeometry x="1470" y="140" width="40" height="40" as="geometry" />
        </mxCell>
        <mxCell id="X5qCzSRsX2g8T83lWoOT-196" value="&lt;div&gt;&lt;u&gt;Zustandslegende&lt;/u&gt;&lt;/div&gt;&lt;div&gt;&lt;ul&gt;&lt;li&gt;Z0 = nichts&lt;/li&gt;&lt;li&gt;Z1 = &quot;A&quot;&lt;/li&gt;&lt;li&gt;Z2 = &quot;AN&quot;&lt;/li&gt;&lt;li&gt;Z3 = &quot;ANA&quot;&lt;/li&gt;&lt;li&gt;Z4 = &quot;ANAN&quot;&lt;/li&gt;&lt;li&gt;Z5 = &quot;ANANA&quot;&lt;/li&gt;&lt;li&gt;Z6 = &quot;ANANAS&quot;&lt;/li&gt;&lt;/ul&gt;&lt;/div&gt;" style="text;html=1;align=left;verticalAlign=middle;whiteSpace=wrap;rounded=0;" parent="1" vertex="1">
          <mxGeometry x="-105" y="-130" width="155" height="160" as="geometry" />
        </mxCell>
        <mxCell id="X5qCzSRsX2g8T83lWoOT-208" value="&lt;b&gt;bei != Alphabet immer zurÃ¼ck zu Z0&lt;/b&gt;" style="text;html=1;align=center;verticalAlign=middle;whiteSpace=wrap;rounded=0;" parent="1" vertex="1">
          <mxGeometry x="-115" y="30" width="215" height="30" as="geometry" />
        </mxCell>
        <mxCell id="zFuQ3YBV2KM4UyUT71BZ-74" value="" style="endArrow=classic;html=1;rounded=0;exitX=1;exitY=0.5;exitDx=0;exitDy=0;entryX=0;entryY=0.5;entryDx=0;entryDy=0;curved=1;" edge="1" parent="1" source="52" target="51">
          <mxGeometry width="50" height="50" relative="1" as="geometry">
            <mxPoint x="-220.49390334559007" y="268" as="sourcePoint" />
            <mxPoint x="-182.49390334559007" y="261" as="targetPoint" />
            <Array as="points">
              <mxPoint x="-210" y="140" />
            </Array>
          </mxGeometry>
        </mxCell>
        <mxCell id="zFuQ3YBV2KM4UyUT71BZ-75" value="" style="endArrow=classic;html=1;rounded=0;exitX=1;exitY=0.5;exitDx=0;exitDy=0;entryX=0;entryY=0.5;entryDx=0;entryDy=0;curved=1;" edge="1" parent="1" target="X5qCzSRsX2g8T83lWoOT-180">
          <mxGeometry width="50" height="50" relative="1" as="geometry">
            <mxPoint x="-7.5" y="160" as="sourcePoint" />
            <mxPoint x="215.5" y="160" as="targetPoint" />
            <Array as="points">
              <mxPoint x="52.5" y="140" />
            </Array>
          </mxGeometry>
        </mxCell>
        <mxCell id="zFuQ3YBV2KM4UyUT71BZ-76" value="" style="endArrow=classic;html=1;rounded=0;exitX=1;exitY=0.5;exitDx=0;exitDy=0;entryX=0;entryY=0.5;entryDx=0;entryDy=0;curved=1;" edge="1" parent="1" target="X5qCzSRsX2g8T83lWoOT-181">
          <mxGeometry width="50" height="50" relative="1" as="geometry">
            <mxPoint x="270" y="160" as="sourcePoint" />
            <mxPoint x="507.5" y="160" as="targetPoint" />
            <Array as="points">
              <mxPoint x="330" y="140" />
            </Array>
          </mxGeometry>
        </mxCell>
        <mxCell id="zFuQ3YBV2KM4UyUT71BZ-77" value="" style="endArrow=classic;html=1;rounded=0;exitX=1;exitY=0.5;exitDx=0;exitDy=0;entryX=0;entryY=0.5;entryDx=0;entryDy=0;curved=1;" edge="1" parent="1">
          <mxGeometry width="50" height="50" relative="1" as="geometry">
            <mxPoint x="580" y="160" as="sourcePoint" />
            <mxPoint x="850" y="160" as="targetPoint" />
            <Array as="points">
              <mxPoint x="640" y="140" />
            </Array>
          </mxGeometry>
        </mxCell>
        <mxCell id="zFuQ3YBV2KM4UyUT71BZ-78" value="" style="endArrow=classic;html=1;rounded=0;exitX=1;exitY=0.5;exitDx=0;exitDy=0;entryX=0;entryY=0.5;entryDx=0;entryDy=0;curved=1;" edge="1" parent="1">
          <mxGeometry width="50" height="50" relative="1" as="geometry">
            <mxPoint x="890" y="160" as="sourcePoint" />
            <mxPoint x="1160" y="160" as="targetPoint" />
            <Array as="points">
              <mxPoint x="950" y="140" />
            </Array>
          </mxGeometry>
        </mxCell>
        <mxCell id="zFuQ3YBV2KM4UyUT71BZ-79" value="A" style="text;html=1;align=center;verticalAlign=middle;whiteSpace=wrap;rounded=0;fontSize=21;" vertex="1" parent="1">
          <mxGeometry x="-200" y="110" width="60" height="30" as="geometry" />
        </mxCell>
        <mxCell id="zFuQ3YBV2KM4UyUT71BZ-80" value="N" style="text;html=1;align=center;verticalAlign=middle;whiteSpace=wrap;rounded=0;fontSize=21;" vertex="1" parent="1">
          <mxGeometry x="70" y="110" width="60" height="30" as="geometry" />
        </mxCell>
        <mxCell id="zFuQ3YBV2KM4UyUT71BZ-82" value="A" style="text;html=1;align=center;verticalAlign=middle;whiteSpace=wrap;rounded=0;fontSize=21;" vertex="1" parent="1">
          <mxGeometry x="360" y="110" width="60" height="30" as="geometry" />
        </mxCell>
        <mxCell id="zFuQ3YBV2KM4UyUT71BZ-83" value="N" style="text;html=1;align=center;verticalAlign=middle;whiteSpace=wrap;rounded=0;fontSize=21;" vertex="1" parent="1">
          <mxGeometry x="670" y="110" width="60" height="30" as="geometry" />
        </mxCell>
        <mxCell id="zFuQ3YBV2KM4UyUT71BZ-84" value="A" style="text;html=1;align=center;verticalAlign=middle;whiteSpace=wrap;rounded=0;fontSize=21;" vertex="1" parent="1">
          <mxGeometry x="980" y="110" width="60" height="30" as="geometry" />
        </mxCell>
        <mxCell id="zFuQ3YBV2KM4UyUT71BZ-85" value="" style="endArrow=classic;html=1;rounded=0;exitX=1;exitY=0.5;exitDx=0;exitDy=0;entryX=0;entryY=0.5;entryDx=0;entryDy=0;curved=1;" edge="1" parent="1">
          <mxGeometry width="50" height="50" relative="1" as="geometry">
            <mxPoint x="1200" y="160" as="sourcePoint" />
            <mxPoint x="1470" y="160" as="targetPoint" />
            <Array as="points">
              <mxPoint x="1260" y="140" />
            </Array>
          </mxGeometry>
        </mxCell>
        <mxCell id="zFuQ3YBV2KM4UyUT71BZ-86" value="S" style="text;html=1;align=center;verticalAlign=middle;whiteSpace=wrap;rounded=0;fontSize=21;" vertex="1" parent="1">
          <mxGeometry x="1275" y="110" width="60" height="30" as="geometry" />
        </mxCell>
        <mxCell id="zFuQ3YBV2KM4UyUT71BZ-87" value="" style="endArrow=classic;html=1;rounded=0;exitX=0;exitY=0;exitDx=0;exitDy=0;entryX=1;entryY=0;entryDx=0;entryDy=0;curved=1;" edge="1" parent="1" source="52" target="52">
          <mxGeometry width="50" height="50" relative="1" as="geometry">
            <mxPoint x="-300.49390334559007" y="138" as="sourcePoint" />
            <mxPoint x="-262.49390334559007" y="131" as="targetPoint" />
            <Array as="points">
              <mxPoint x="-293.49390334559007" y="80" />
            </Array>
          </mxGeometry>
        </mxCell>
        <mxCell id="zFuQ3YBV2KM4UyUT71BZ-88" value="!A" style="text;html=1;align=center;verticalAlign=middle;whiteSpace=wrap;rounded=0;fontSize=21;" vertex="1" parent="1">
          <mxGeometry x="-320" y="70" width="60" height="30" as="geometry" />
        </mxCell>
        <mxCell id="zFuQ3YBV2KM4UyUT71BZ-89" value="" style="endArrow=classic;html=1;rounded=0;exitX=0.5;exitY=1;exitDx=0;exitDy=0;entryX=0.5;entryY=1;entryDx=0;entryDy=0;curved=1;" edge="1" parent="1" source="51" target="52">
          <mxGeometry width="50" height="50" relative="1" as="geometry">
            <mxPoint x="-170.49390334559007" y="318" as="sourcePoint" />
            <mxPoint x="-132.49390334559007" y="311" as="targetPoint" />
            <Array as="points">
              <mxPoint x="-163.49390334559007" y="260" />
            </Array>
          </mxGeometry>
        </mxCell>
        <mxCell id="zFuQ3YBV2KM4UyUT71BZ-90" value="!N" style="text;html=1;align=center;verticalAlign=middle;whiteSpace=wrap;rounded=0;fontSize=21;" vertex="1" parent="1">
          <mxGeometry x="-190" y="190" width="60" height="30" as="geometry" />
        </mxCell>
        <mxCell id="zFuQ3YBV2KM4UyUT71BZ-91" value="" style="endArrow=classic;html=1;rounded=0;exitX=0.5;exitY=1;exitDx=0;exitDy=0;entryX=0.5;entryY=1;entryDx=0;entryDy=0;curved=1;" edge="1" parent="1" source="X5qCzSRsX2g8T83lWoOT-180" target="52">
          <mxGeometry width="50" height="50" relative="1" as="geometry">
            <mxPoint x="149.50609665440993" y="338" as="sourcePoint" />
            <mxPoint x="187.50609665440993" y="331" as="targetPoint" />
            <Array as="points">
              <mxPoint x="157" y="340" />
            </Array>
          </mxGeometry>
        </mxCell>
        <mxCell id="zFuQ3YBV2KM4UyUT71BZ-92" value="!A" style="text;html=1;align=center;verticalAlign=middle;whiteSpace=wrap;rounded=0;fontSize=21;" vertex="1" parent="1">
          <mxGeometry x="50" y="220" width="60" height="30" as="geometry" />
        </mxCell>
        <mxCell id="zFuQ3YBV2KM4UyUT71BZ-93" value="" style="endArrow=classic;html=1;rounded=0;exitX=0.5;exitY=1;exitDx=0;exitDy=0;entryX=1;entryY=1;entryDx=0;entryDy=0;curved=1;" edge="1" parent="1" source="X5qCzSRsX2g8T83lWoOT-181" target="51">
          <mxGeometry width="50" height="50" relative="1" as="geometry">
            <mxPoint x="469.50609665440993" y="318" as="sourcePoint" />
            <mxPoint x="507.50609665440993" y="311" as="targetPoint" />
            <Array as="points">
              <mxPoint x="476.50609665440993" y="260" />
            </Array>
          </mxGeometry>
        </mxCell>
        <mxCell id="zFuQ3YBV2KM4UyUT71BZ-94" value="!N" style="text;html=1;align=center;verticalAlign=middle;whiteSpace=wrap;rounded=0;fontSize=21;" vertex="1" parent="1">
          <mxGeometry x="395" y="190" width="60" height="30" as="geometry" />
        </mxCell>
        <mxCell id="zFuQ3YBV2KM4UyUT71BZ-95" value="" style="endArrow=classic;html=1;rounded=0;exitX=0.5;exitY=1;exitDx=0;exitDy=0;entryX=1;entryY=1;entryDx=0;entryDy=0;curved=1;" edge="1" parent="1" source="X5qCzSRsX2g8T83lWoOT-185" target="X5qCzSRsX2g8T83lWoOT-180">
          <mxGeometry width="50" height="50" relative="1" as="geometry">
            <mxPoint x="689.5060966544099" y="358" as="sourcePoint" />
            <mxPoint x="727.5060966544099" y="351" as="targetPoint" />
            <Array as="points">
              <mxPoint x="697" y="340" />
            </Array>
          </mxGeometry>
        </mxCell>
        <mxCell id="zFuQ3YBV2KM4UyUT71BZ-96" value="!A" style="text;html=1;align=center;verticalAlign=middle;whiteSpace=wrap;rounded=0;fontSize=21;" vertex="1" parent="1">
          <mxGeometry x="620" y="230" width="60" height="30" as="geometry" />
        </mxCell>
        <mxCell id="zFuQ3YBV2KM4UyUT71BZ-97" value="" style="endArrow=classic;html=1;rounded=0;exitX=0.5;exitY=1;exitDx=0;exitDy=0;entryX=1;entryY=1;entryDx=0;entryDy=0;curved=1;" edge="1" parent="1" source="X5qCzSRsX2g8T83lWoOT-186" target="X5qCzSRsX2g8T83lWoOT-181">
          <mxGeometry width="50" height="50" relative="1" as="geometry">
            <mxPoint x="1169.50609665441" y="338" as="sourcePoint" />
            <mxPoint x="1207.50609665441" y="331" as="targetPoint" />
            <Array as="points">
              <mxPoint x="1176.50609665441" y="280" />
            </Array>
          </mxGeometry>
        </mxCell>
        <mxCell id="zFuQ3YBV2KM4UyUT71BZ-98" value="!S" style="text;html=1;align=center;verticalAlign=middle;whiteSpace=wrap;rounded=0;fontSize=21;" vertex="1" parent="1">
          <mxGeometry x="1030" y="200" width="60" height="30" as="geometry" />
        </mxCell>
      </root>
    </mxGraphModel>
  </diagram>
</mxfile>
